<svg width="54" height="36" viewBox="0 0 54 36" fill="none" xmlns="http://www.w3.org/2000/svg">
<path d="M0.860795 9.27273H2.79545L5.38636 15.5966H5.48864L8.07955 9.27273H10.0142V18H8.49716V12.0043H8.41619L6.00426 17.9744H4.87074L2.45881 11.9915H2.37784V18H0.860795V9.27273ZM14.5653 18.1278C13.9091 18.1278 13.3423 17.9915 12.8651 17.7188C12.3906 17.4432 12.0256 17.054 11.7699 16.5511C11.5142 16.0455 11.3864 15.4503 11.3864 14.7656C11.3864 14.0923 11.5142 13.5014 11.7699 12.9929C12.0284 12.4815 12.3892 12.0838 12.8523 11.7997C13.3153 11.5128 13.8594 11.3693 14.4844 11.3693C14.8878 11.3693 15.2685 11.4347 15.6264 11.5653C15.9872 11.6932 16.3054 11.892 16.581 12.1619C16.8594 12.4318 17.0781 12.7756 17.2372 13.1932C17.3963 13.608 17.4759 14.1023 17.4759 14.6761V15.1491H12.1108V14.1094H15.9972C15.9943 13.8139 15.9304 13.5511 15.8054 13.321C15.6804 13.0881 15.5057 12.9048 15.2812 12.7713C15.0597 12.6378 14.8011 12.571 14.5057 12.571C14.1903 12.571 13.9134 12.6477 13.6747 12.8011C13.4361 12.9517 13.25 13.1506 13.1165 13.3977C12.9858 13.642 12.919 13.9105 12.9162 14.2031V15.1108C12.9162 15.4915 12.9858 15.8182 13.125 16.0909C13.2642 16.3608 13.4588 16.5682 13.7088 16.7131C13.9588 16.8551 14.2514 16.9261 14.5866 16.9261C14.8111 16.9261 15.0142 16.8949 15.196 16.8324C15.3778 16.767 15.5355 16.6719 15.669 16.5469C15.8026 16.4219 15.9034 16.267 15.9716 16.0824L17.4119 16.2443C17.321 16.625 17.1477 16.9574 16.892 17.2415C16.6392 17.5227 16.3153 17.7415 15.9205 17.8977C15.5256 18.0511 15.0739 18.1278 14.5653 18.1278ZM20.6644 18.1321C20.2496 18.1321 19.8761 18.0582 19.5437 17.9105C19.2141 17.7599 18.9528 17.5384 18.7596 17.2457C18.5692 16.9531 18.4741 16.5923 18.4741 16.1634C18.4741 15.794 18.5423 15.4886 18.6786 15.2472C18.815 15.0057 19.0011 14.8125 19.2369 14.6676C19.4727 14.5227 19.7383 14.4134 20.0337 14.3395C20.332 14.2628 20.6403 14.2074 20.9585 14.1733C21.342 14.1335 21.6531 14.098 21.8917 14.0668C22.1303 14.0327 22.3036 13.9815 22.4116 13.9134C22.5224 13.8423 22.5778 13.733 22.5778 13.5852V13.5597C22.5778 13.2386 22.4826 12.9901 22.2923 12.8139C22.1019 12.6378 21.8278 12.5497 21.4698 12.5497C21.092 12.5497 20.7923 12.6321 20.5707 12.7969C20.3519 12.9616 20.2042 13.1562 20.1275 13.3807L18.6871 13.1761C18.8008 12.7784 18.9883 12.446 19.2496 12.179C19.511 11.9091 19.8306 11.7074 20.2085 11.5739C20.5863 11.4375 21.0039 11.3693 21.4613 11.3693C21.7766 11.3693 22.0906 11.4062 22.4031 11.4801C22.7156 11.554 23.0011 11.6761 23.2596 11.8466C23.5181 12.0142 23.7255 12.2429 23.8817 12.5327C24.0408 12.8224 24.1204 13.1847 24.1204 13.6193V18H22.6374V17.1009H22.5863C22.4925 17.2827 22.3604 17.4531 22.19 17.6122C22.0224 17.7685 21.8107 17.8949 21.555 17.9915C21.3022 18.0852 21.0053 18.1321 20.6644 18.1321ZM21.065 16.9986C21.3746 16.9986 21.6431 16.9375 21.8704 16.8153C22.0977 16.6903 22.2724 16.5256 22.3945 16.321C22.5195 16.1165 22.582 15.8935 22.582 15.652V14.8807C22.5337 14.9205 22.4513 14.9574 22.3349 14.9915C22.2212 15.0256 22.0934 15.0554 21.9513 15.081C21.8093 15.1065 21.6687 15.1293 21.5295 15.1491C21.3903 15.169 21.2695 15.1861 21.1673 15.2003C20.9371 15.2315 20.7312 15.2827 20.5494 15.3537C20.3675 15.4247 20.2241 15.5241 20.119 15.652C20.0138 15.777 19.9613 15.9389 19.9613 16.1378C19.9613 16.4219 20.065 16.6364 20.2724 16.7812C20.4798 16.9261 20.744 16.9986 21.065 16.9986ZM27.2141 9.27273V18H25.6715V9.27273H27.2141ZM0.860795 33V24.2727H4.13352C4.80398 24.2727 5.36648 24.3977 5.82102 24.6477C6.27841 24.8977 6.62358 25.2415 6.85653 25.679C7.09233 26.1136 7.21023 26.608 7.21023 27.1619C7.21023 27.7216 7.09233 28.2187 6.85653 28.6534C6.62074 29.0881 6.27273 29.4304 5.8125 29.6804C5.35227 29.9276 4.78551 30.0511 4.11222 30.0511H1.94318V28.7514H3.89915C4.29119 28.7514 4.61222 28.6832 4.86222 28.5469C5.11222 28.4105 5.29688 28.223 5.41619 27.9844C5.53835 27.7457 5.59943 27.4716 5.59943 27.1619C5.59943 26.8523 5.53835 26.5795 5.41619 26.3438C5.29688 26.108 5.1108 25.9247 4.85795 25.794C4.60795 25.6605 4.28551 25.5938 3.89062 25.5938H2.44176V33H0.860795ZM10.0579 24.2727V33H8.51527V24.2727H10.0579ZM13.5277 33.1321C13.1129 33.1321 12.7393 33.0582 12.407 32.9105C12.0774 32.7599 11.8161 32.5384 11.6229 32.2457C11.4325 31.9531 11.3374 31.5923 11.3374 31.1634C11.3374 30.794 11.4055 30.4886 11.5419 30.2472C11.6783 30.0057 11.8643 29.8125 12.1001 29.6676C12.3359 29.5227 12.6016 29.4134 12.897 29.3395C13.1953 29.2628 13.5036 29.2074 13.8217 29.1733C14.2053 29.1335 14.5163 29.098 14.755 29.0668C14.9936 29.0327 15.1669 28.9815 15.2749 28.9134C15.3857 28.8423 15.4411 28.733 15.4411 28.5852V28.5597C15.4411 28.2386 15.3459 27.9901 15.1555 27.8139C14.9652 27.6378 14.6911 27.5497 14.3331 27.5497C13.9553 27.5497 13.6555 27.6321 13.4339 27.7969C13.2152 27.9616 13.0675 28.1562 12.9908 28.3807L11.5504 28.1761C11.6641 27.7784 11.8516 27.446 12.1129 27.179C12.3743 26.9091 12.6939 26.7074 13.0717 26.5739C13.4496 26.4375 13.8672 26.3693 14.3246 26.3693C14.6399 26.3693 14.9538 26.4062 15.2663 26.4801C15.5788 26.554 15.8643 26.6761 16.1229 26.8466C16.3814 27.0142 16.5888 27.2429 16.745 27.5327C16.9041 27.8224 16.9837 28.1847 16.9837 28.6193V33H15.5007V32.1009H15.4496C15.3558 32.2827 15.2237 32.4531 15.0533 32.6122C14.8857 32.7685 14.674 32.8949 14.4183 32.9915C14.1655 33.0852 13.8686 33.1321 13.5277 33.1321ZM13.9283 31.9986C14.2379 31.9986 14.5064 31.9375 14.7337 31.8153C14.9609 31.6903 15.1357 31.5256 15.2578 31.321C15.3828 31.1165 15.4453 30.8935 15.4453 30.652V29.8807C15.397 29.9205 15.3146 29.9574 15.1982 29.9915C15.0845 30.0256 14.9567 30.0554 14.8146 30.081C14.6726 30.1065 14.532 30.1293 14.3928 30.1491C14.2536 30.169 14.1328 30.1861 14.0305 30.2003C13.8004 30.2315 13.5945 30.2827 13.4126 30.3537C13.2308 30.4247 13.0874 30.5241 12.9822 30.652C12.8771 30.777 12.8246 30.9389 12.8246 31.1378C12.8246 31.4219 12.9283 31.6364 13.1357 31.7812C13.343 31.9261 13.6072 31.9986 13.9283 31.9986ZM20.0774 29.1648V33H18.5348V26.4545H20.0092V27.5668H20.0859C20.2365 27.2003 20.4766 26.9091 20.8061 26.6932C21.1385 26.4773 21.549 26.3693 22.0376 26.3693C22.4893 26.3693 22.8828 26.4659 23.218 26.6591C23.5561 26.8523 23.8175 27.1321 24.0021 27.4986C24.1896 27.8651 24.282 28.3097 24.2791 28.8324V33H22.7365V29.071C22.7365 28.6335 22.6229 28.2912 22.3956 28.044C22.1712 27.7969 21.8601 27.6733 21.4624 27.6733C21.1925 27.6733 20.9524 27.733 20.7422 27.8523C20.5348 27.9687 20.3714 28.1378 20.2521 28.3594C20.1357 28.581 20.0774 28.8494 20.0774 29.1648ZM27.3899 29.1648V33H25.8473V26.4545H27.3217V27.5668H27.3984C27.549 27.2003 27.7891 26.9091 28.1186 26.6932C28.451 26.4773 28.8615 26.3693 29.3501 26.3693C29.8018 26.3693 30.1953 26.4659 30.5305 26.6591C30.8686 26.8523 31.13 27.1321 31.3146 27.4986C31.5021 27.8651 31.5945 28.3097 31.5916 28.8324V33H30.049V29.071C30.049 28.6335 29.9354 28.2912 29.7081 28.044C29.4837 27.7969 29.1726 27.6733 28.7749 27.6733C28.505 27.6733 28.2649 27.733 28.0547 27.8523C27.8473 27.9687 27.6839 28.1378 27.5646 28.3594C27.4482 28.581 27.3899 28.8494 27.3899 29.1648ZM36.0575 33.1278C35.4013 33.1278 34.8345 32.9915 34.3572 32.7188C33.8828 32.4432 33.5178 32.054 33.2621 31.5511C33.0064 31.0455 32.8786 30.4503 32.8786 29.7656C32.8786 29.0923 33.0064 28.5014 33.2621 27.9929C33.5206 27.4815 33.8814 27.0838 34.3445 26.7997C34.8075 26.5128 35.3516 26.3693 35.9766 26.3693C36.38 26.3693 36.7607 26.4347 37.1186 26.5653C37.4794 26.6932 37.7976 26.892 38.0732 27.1619C38.3516 27.4318 38.5703 27.7756 38.7294 28.1932C38.8885 28.608 38.968 29.1023 38.968 29.6761V30.1491H33.603V29.1094H37.4893C37.4865 28.8139 37.4226 28.5511 37.2976 28.321C37.1726 28.0881 36.9979 27.9048 36.7734 27.7713C36.5518 27.6378 36.2933 27.571 35.9979 27.571C35.6825 27.571 35.4055 27.6477 35.1669 27.8011C34.9283 27.9517 34.7422 28.1506 34.6087 28.3977C34.478 28.642 34.4112 28.9105 34.4084 29.2031V30.1108C34.4084 30.4915 34.478 30.8182 34.6172 31.0909C34.7564 31.3608 34.951 31.5682 35.201 31.7131C35.451 31.8551 35.7436 31.9261 36.0788 31.9261C36.3033 31.9261 36.5064 31.8949 36.6882 31.8324C36.87 31.767 37.0277 31.6719 37.1612 31.5469C37.2947 31.4219 37.3956 31.267 37.4638 31.0824L38.9041 31.2443C38.8132 31.625 38.6399 31.9574 38.3842 32.2415C38.1314 32.5227 37.8075 32.7415 37.4126 32.8977C37.0178 33.0511 36.5661 33.1278 36.0575 33.1278ZM40.2731 33V26.4545H41.7688V27.5455H41.837C41.9563 27.1676 42.1609 26.8764 42.4506 26.6719C42.7433 26.4645 43.0771 26.3608 43.4521 26.3608C43.5373 26.3608 43.6325 26.3651 43.7376 26.3736C43.8455 26.3793 43.935 26.3892 44.006 26.4034V27.8224C43.9407 27.7997 43.837 27.7798 43.695 27.7628C43.5558 27.7429 43.4208 27.733 43.2901 27.733C43.0089 27.733 42.756 27.794 42.5316 27.9162C42.31 28.0355 42.1353 28.2017 42.0075 28.4148C41.8796 28.6278 41.8157 28.8736 41.8157 29.152V33H40.2731Z" fill="black"/>
<path d="M42 8.04V3M45.5 10L50 7.5M45.5 14L50 16.5M42 15.96V21M38.5 14L34 16.5M38.5 10L34 7.495" stroke="black" stroke-width="2" stroke-linecap="round" stroke-linejoin="round"/>
</svg>
